<?xml version="1.0" standalone="no"?>
<!DOCTYPE svg PUBLIC "-//W3C//DTD SVG 20010904//EN"
 "http://www.w3.org/TR/2001/REC-SVG-20010904/DTD/svg10.dtd">
<svg version="1.0" xmlns="http://www.w3.org/2000/svg"
 width="4500.000000pt" height="4500.000000pt" viewBox="0 0 4500.000000 4500.000000"
 preserveAspectRatio="xMidYMid meet">

<g transform="translate(0.000000,4500.000000) scale(0.100000,-0.100000)"
fill="#000000" stroke="none">
<path d="M24475 39814 c-280 -50 -497 -194 -652 -432 -136 -207 -241 -539
-231 -726 5 -98 28 -146 93 -204 56 -50 109 -71 305 -123 875 -231 1617 -664
2285 -1333 508 -509 1075 -1269 1438 -1926 73 -132 131 -169 264 -170 260 0
551 141 804 390 252 249 401 539 439 858 15 119 7 212 -30 359 -51 203 -119
337 -344 678 -925 1402 -2159 2265 -3694 2585 -293 62 -503 75 -677 44z"/>
<path d="M12085 39097 c-133 -34 -240 -124 -312 -262 -63 -122 -507 -1246
-625 -1585 -69 -198 -137 -319 -233 -415 -100 -100 -200 -154 -430 -235 -360
-125 -1438 -550 -1560 -613 -90 -48 -191 -139 -224 -204 -48 -95 -63 -224 -40
-335 29 -138 118 -245 268 -322 115 -59 1031 -420 1553 -612 255 -94 321 -124
396 -184 57 -44 130 -136 167 -211 13 -25 72 -173 130 -330 242 -643 569
-1461 613 -1534 103 -170 229 -245 411 -245 204 0 342 92 444 297 35 69 420
1050 568 1448 67 179 137 349 159 387 53 89 127 168 209 222 80 53 122 72 396
172 483 176 1451 561 1533 609 188 110 275 306 231 517 -32 148 -147 276 -317
349 -97 42 -1068 425 -1357 535 -165 63 -330 126 -367 140 -134 51 -248 144
-317 258 -19 31 -93 215 -166 409 -193 514 -530 1369 -573 1455 -71 141 -164
233 -279 274 -72 25 -208 33 -278 15z m231 -2057 c150 -676 539 -1119 1197
-1364 108 -40 307 -99 377 -111 44 -8 43 -9 -102 -45 -441 -111 -766 -285
-1025 -547 -246 -250 -413 -564 -518 -976 l-43 -168 -17 73 c-226 940 -764
1445 -1683 1578 l-83 12 36 25 c121 82 315 169 647 289 300 109 438 185 554
306 133 139 179 229 339 662 85 230 140 352 211 474 l58 97 13 -95 c8 -52 25
-147 39 -210z"/>
<path d="M22050 37813 c-1355 -49 -2816 -580 -3978 -1445 -326 -242 -560 -445
-857 -742 -406 -407 -716 -786 -1050 -1286 -814 -1217 -1233 -2362 -1347
-3680 -7 -83 -12 -308 -13 -525 0 -371 1 -381 22 -420 40 -74 109 -121 220
-150 73 -19 222 -19 293 0 141 37 282 141 347 256 50 87 64 149 69 309 7 214
40 331 128 454 78 110 155 170 401 316 503 298 1055 727 1635 1272 340 319
503 509 651 760 197 333 309 687 350 1112 11 115 8 460 -7 772 -5 103 -3 150
11 215 31 158 104 267 209 315 70 32 127 38 213 25 166 -26 266 -111 323 -277
45 -130 54 -228 54 -579 0 -353 -5 -422 -65 -870 -36 -266 -36 -342 3 -426 14
-29 38 -69 54 -88 72 -85 961 -775 1354 -1051 1085 -761 2109 -1253 2945
-1414 550 -106 1045 -97 1550 30 145 37 267 77 467 155 209 81 315 109 420
109 233 0 347 -151 377 -497 6 -65 11 -221 11 -348 1 -331 14 -402 89 -452 44
-30 100 -40 346 -64 339 -32 436 -35 490 -15 53 21 87 61 109 131 8 28 34 205
58 395 l43 345 -1 350 c-3 1412 -348 2769 -1009 3970 -353 641 -691 1102
-1135 1546 -439 439 -870 751 -1385 1000 -615 297 -1258 455 -1985 489 -196 9
-240 9 -410 3z"/>
<path d="M19216 32390 c-56 -18 -107 -64 -208 -189 -389 -481 -817 -901 -1323
-1294 -256 -199 -411 -310 -731 -523 -163 -108 -307 -211 -329 -235 -69 -76
-78 -110 -87 -329 -76 -1790 -74 -2580 7 -3260 192 -1603 947 -2900 2333
-4008 489 -391 1111 -792 1437 -927 324 -135 619 -195 953 -195 249 0 431 25
662 91 162 46 313 110 583 246 1060 536 1903 1267 2522 2188 454 676 800 1496
934 2212 90 480 123 1053 101 1704 -7 206 -16 721 -19 1144 l-6 771 -26 49
c-17 33 -38 58 -65 73 -35 21 -48 22 -134 18 -52 -2 -153 -15 -225 -29 -462
-90 -991 -101 -1490 -31 -714 99 -1456 361 -2262 800 -694 377 -1372 837
-2172 1473 -139 111 -275 213 -302 226 -55 29 -112 38 -153 25z m-976 -3471
c25 -5 122 -48 215 -94 269 -132 443 -178 680 -178 237 1 411 46 680 177 190
93 248 111 341 103 129 -10 229 -88 301 -233 30 -62 37 -88 41 -154 4 -72 2
-84 -26 -144 -56 -120 -184 -220 -434 -341 -164 -79 -305 -128 -462 -161 -223
-47 -641 -44 -891 7 -282 57 -638 220 -773 355 -134 134 -155 288 -65 474 38
78 127 165 189 184 58 17 141 20 204 5z m4682 -81 c296 -148 431 -183 708
-183 278 0 407 33 714 183 l180 87 100 0 c87 0 107 -3 145 -23 128 -69 221
-251 208 -409 -11 -138 -93 -243 -270 -347 -210 -124 -421 -208 -631 -252
-102 -21 -157 -26 -352 -30 -248 -6 -396 4 -553 36 -277 58 -634 226 -776 366
-89 87 -119 154 -120 264 0 78 3 92 37 162 56 117 138 197 238 229 14 5 64 7
112 6 l86 -3 174 -86z m-3171 -4154 c30 -9 144 -63 255 -120 384 -199 647
-288 994 -335 139 -20 469 -17 610 4 351 54 644 159 1015 366 193 108 322 129
440 72 139 -67 247 -255 231 -405 -16 -156 -124 -272 -393 -425 -423 -240
-866 -362 -1428 -392 -551 -30 -962 28 -1390 198 -286 113 -575 276 -690 388
-98 95 -130 162 -129 267 0 70 4 85 42 162 52 104 130 186 205 215 64 25 164
27 238 5z"/>
<path d="M15265 28820 c-581 -91 -899 -592 -810 -1277 44 -337 127 -606 285
-928 148 -303 284 -503 594 -875 190 -227 280 -321 376 -394 60 -44 165 -103
227 -127 l26 -9 -6 137 c-4 123 -10 160 -55 338 -76 300 -129 673 -167 1165
-27 365 -36 684 -34 1225 2 487 1 544 -14 584 -44 114 -119 160 -270 166 -50
2 -119 0 -152 -5z"/>
<path d="M27060 28819 c-76 -15 -132 -50 -165 -104 l-30 -48 -6 -726 c-7 -712
-14 -939 -45 -1331 -36 -465 -108 -964 -193 -1337 l-19 -82 47 32 c196 135
539 455 705 658 382 469 649 1005 738 1484 30 162 33 530 5 670 -92 464 -361
728 -798 785 -89 11 -178 11 -239 -1z"/>
<path d="M30170 26977 c-131 -44 -236 -136 -305 -268 -49 -94 -441 -1086 -602
-1524 -116 -317 -173 -416 -298 -516 -80 -66 -163 -107 -330 -167 -217 -78
-437 -161 -720 -272 -143 -56 -384 -151 -536 -210 -308 -121 -357 -143 -447
-207 -115 -81 -179 -196 -189 -338 -15 -204 80 -361 282 -467 93 -48 989 -402
1610 -635 110 -41 229 -91 265 -111 78 -43 175 -137 217 -212 18 -30 79 -180
137 -333 147 -385 530 -1367 567 -1452 78 -180 169 -293 274 -341 125 -58 287
-55 410 5 85 42 169 134 229 251 25 48 81 180 125 292 43 111 125 318 181 458
142 354 210 532 292 765 39 110 82 223 95 250 67 133 181 254 311 330 81 48
128 67 467 191 116 42 347 130 515 196 168 66 408 160 534 209 288 113 372
156 458 238 114 107 162 248 138 402 -15 103 -52 173 -129 249 -90 89 -156
121 -627 306 -219 86 -473 185 -564 221 -91 36 -294 113 -451 173 -157 59
-307 119 -335 133 -121 61 -229 169 -290 290 -14 26 -71 170 -128 320 -188
493 -545 1401 -580 1472 -81 169 -195 269 -353 310 -79 21 -147 18 -223 -8z
m205 -1937 c61 -286 199 -618 342 -820 37 -52 117 -145 178 -205 261 -262 601
-418 1045 -480 63 -9 119 -17 124 -19 15 -4 -140 -99 -252 -155 -115 -58 -185
-87 -422 -173 -304 -111 -438 -185 -551 -306 -125 -132 -190 -258 -323 -623
-47 -130 -106 -283 -132 -338 -44 -97 -107 -217 -123 -234 -4 -4 -18 43 -31
105 -51 250 -125 463 -231 668 -172 332 -445 596 -779 753 -164 78 -396 151
-543 172 -26 4 -49 11 -52 15 -8 12 125 92 255 153 63 30 196 85 295 122 319
119 455 193 571 311 122 123 206 280 319 594 89 248 145 384 213 514 43 84 58
104 63 90 4 -11 19 -75 34 -144z"/>
<path d="M12615 26065 c-98 -17 -176 -57 -250 -126 -80 -75 -130 -170 -195
-367 -137 -420 -324 -779 -557 -1067 -89 -110 -289 -310 -398 -397 -255 -204
-542 -354 -905 -475 -417 -138 -586 -278 -623 -514 -20 -129 23 -279 106 -375
20 -23 67 -62 104 -88 71 -48 645 -326 1131 -547 156 -71 309 -145 340 -166
74 -48 188 -165 231 -236 18 -31 66 -130 106 -219 161 -362 536 -1139 590
-1223 105 -164 303 -264 468 -235 138 24 265 114 352 250 57 89 394 788 585
1217 83 185 139 271 229 355 93 85 135 109 457 257 576 264 1061 502 1133 556
168 123 240 297 200 487 -25 119 -101 225 -217 301 -62 42 -765 380 -1191 574
-247 112 -300 143 -387 226 -82 77 -145 171 -197 292 -82 190 -263 575 -521
1106 -78 161 -128 240 -193 301 -68 63 -130 96 -209 113 -81 17 -97 17 -189 0z
m138 -1717 c13 -18 41 -78 62 -133 85 -224 214 -441 361 -603 188 -207 473
-391 791 -510 l103 -39 -103 -43 c-384 -160 -723 -407 -928 -675 -124 -161
-245 -384 -304 -559 -17 -47 -32 -86 -35 -86 -3 0 -23 46 -45 103 -51 134
-146 320 -219 431 -249 376 -579 616 -1006 730 l-85 23 3 34 c5 44 27 85 55
103 12 8 69 31 127 51 143 49 366 161 474 239 263 190 429 422 561 783 62 170
132 226 188 151z"/>
<path d="M18742 21543 c-16 -6 -47 -66 -61 -118 -5 -22 -26 -127 -46 -234
-142 -771 -417 -1385 -847 -1896 -104 -123 -341 -354 -465 -452 -463 -368
-939 -601 -1691 -829 -466 -141 -960 -248 -1982 -429 -908 -161 -1323 -248
-1770 -371 -1668 -456 -2614 -1403 -2944 -2948 -110 -510 -168 -1064 -208
-1976 -16 -383 -14 -1657 6 -2396 8 -336 20 -923 26 -1305 6 -382 11 -766 13
-854 2 -153 3 -163 30 -217 34 -69 68 -100 144 -128 57 -21 59 -21 1163 -22
608 -1 1121 2 1140 7 100 22 172 85 211 182 l23 58 2 1845 c1 1864 6 2187 39
2435 84 645 332 1198 774 1730 108 131 388 406 516 508 476 381 1011 614 1650
717 357 58 -189 54 6605 57 6328 4 6496 3 6825 -33 723 -79 1315 -312 1855
-730 133 -104 389 -350 498 -479 501 -596 775 -1305 812 -2098 5 -111 10
-1021 10 -2022 0 -1080 4 -1857 10 -1910 11 -108 31 -170 68 -208 56 -58 24
-57 1252 -59 1028 -1 1130 0 1182 15 77 23 137 71 171 137 43 85 49 149 36
355 -10 148 -9 242 5 530 84 1812 91 3196 21 4285 -32 499 -92 1064 -145 1387
-197 1179 -767 2064 -1685 2611 -587 349 -1446 610 -2835 861 -151 27 -441 80
-645 116 -1201 215 -1883 405 -2460 684 -1162 562 -1861 1485 -2096 2769 -45
246 -72 324 -126 359 -66 44 -138 17 -407 -149 -223 -138 -549 -305 -756 -385
-450 -177 -816 -255 -1260 -269 -769 -25 -1529 210 -2317 717 -227 146 -288
173 -341 152z"/>
<path d="M14830 14079 c-233 -20 -537 -83 -750 -155 -415 -142 -756 -357
-1050 -661 -420 -434 -663 -971 -747 -1653 -17 -135 -18 -280 -18 -2090 0
-1823 1 -1949 17 -2001 20 -64 63 -108 125 -130 54 -20 17646 -21 17709 -2 50
16 101 49 125 83 10 14 27 54 36 90 17 61 18 178 18 1970 0 2035 1 1994 -50
2295 -99 580 -352 1091 -730 1471 -209 210 -422 363 -679 489 -297 145 -566
224 -951 282 -114 17 -436 17 -6535 19 -3626 1 -6461 -3 -6520 -7z"/>
</g>
</svg>
