<?xml version="1.0" encoding="UTF-8" standalone="no"?>
<!-- Created with Inkscape (http://www.inkscape.org/) -->

<svg
   version="1.1"
   id="svg2"
   width="1440"
   height="1440"
   viewBox="0 0 1440 1440"
   xmlns="http://www.w3.org/2000/svg"
   xmlns:svg="http://www.w3.org/2000/svg">
  <defs
     id="defs6">
    <clipPath
       clipPathUnits="userSpaceOnUse"
       id="clipPath16">
      <path
         d="M 0,1080 H 1080 V 0 H 0 Z"
         id="path14" />
    </clipPath>
  </defs>
  <g
     id="g8"
     transform="matrix(1.3333333,0,0,-1.3333333,0,1440)">
    <g
       id="g10">
      <g
         id="g12"
         clip-path="url(#clipPath16)">
        <path
           d="m 248.606,424.065 h 115.952 v 57.241 H 248.606 Z m 0.012,350.387 H 423.04 v 57.23 H 248.618 Z M 481.18,598.151 H 248.829 V 540.607 H 481.18 Z m 58.691,116.908 H 248.746 V 657.405 H 539.871 Z M 319.78,189.797 h -26.004 c -0.794,0.386 -1.557,1.019 -2.386,1.121 -56.904,6.965 -102.123,56.988 -101.884,120.528 0.715,190.269 0.258,380.543 0.258,570.815 v 7.942 H 598.097 V 423.338 h -174.66 c 0,-3.436 0,-6.137 0,-8.838 -0.001,-34.905 0.13,-69.812 -0.032,-104.717 -0.25,-53.719 -30.492,-96.788 -80.037,-113.885 -7.653,-2.641 -15.715,-4.097 -23.588,-6.101"
           style="fill:#000000;fill-opacity:1;fill-rule:nonzero;stroke:none"
           id="path18" />
        <g
           id="g20"
           transform="translate(437.4812,189.7974)">
          <path
             d="m 0,0 c 6.428,9.083 13.4,17.835 19.183,27.312 17.407,28.532 25.31,59.74 25,93.127 -0.166,17.971 -0.029,35.944 -0.029,54.343 h 320.87 c 0.133,-1.771 0.402,-3.52 0.373,-5.265 -0.377,-22.787 0.891,-45.755 -1.549,-68.322 C 358.307,49.938 316.753,8.631 265.829,1.353 264.322,1.137 262.879,0.461 261.407,0 Z"
             style="fill:#000000;fill-opacity:1;fill-rule:nonzero;stroke:none"
             id="path22" />
        </g>
        <g
           id="g24"
           transform="translate(890.4946,559.3991)">
          <path
             d="m 0,0 c -3.638,-10.714 -5.851,-22.205 -11.188,-31.991 -14.635,-26.833 -37.903,-41.751 -68.421,-45.059 -2.477,-0.268 -4.958,-0.49 -7.885,-0.778 v -57.492 h -58.383 v 57.515 c -30.031,1.406 -53.923,13.231 -71.37,37.048 -10.667,14.561 -16.831,34.396 -15.657,50.237 h 57.373 c 1.911,-13.862 8.591,-23.873 22.67,-27.621 2.18,-0.58 4.487,-0.945 6.737,-0.953 19.615,-0.071 39.234,-0.285 58.844,0.045 14.685,0.247 26.723,11.11 28.405,24.764 1.811,14.705 -6.18,27.903 -19.863,31.925 -4.294,1.262 -8.982,1.576 -13.498,1.631 -19.612,0.243 -39.243,-0.245 -58.837,0.406 -45.097,1.5 -81.204,39.406 -82.51,86.033 -1.231,43.932 33.787,83.701 77.509,88.031 3.127,0.31 6.249,0.661 9.984,1.058 v 57.464 h 58.398 v -57.639 c 16.371,-0.657 31.332,-4.249 44.826,-12.574 23.007,-14.194 37.049,-34.55 41.616,-61.316 0.224,-1.314 0.825,-2.564 1.25,-3.845 v -9.582 h -58.245 c -2.514,17.138 -12.539,28.025 -27.31,28.465 -20.719,0.617 -41.491,0.752 -62.2,0.005 -19.546,-0.705 -32.133,-20.476 -25.639,-38.764 4.321,-12.168 15.092,-19.288 29.976,-19.43 19.825,-0.188 39.666,0.299 59.475,-0.316 38.985,-1.21 71.98,-28.41 81.277,-66.307 C -1.812,27.476 -0.89,24.008 0,20.533 Z"
             style="fill:#000000;fill-opacity:1;fill-rule:nonzero;stroke:none"
             id="path26" />
        </g>
      </g>
    </g>
  </g>
</svg>
