<?xml version="1.0" encoding="UTF-8" standalone="no"?>
<!-- Created with Inkscape (http://www.inkscape.org/) -->

<svg
   version="1.1"
   id="svg2"
   width="1440"
   height="1440"
   viewBox="0 0 1440 1440"
   xmlns="http://www.w3.org/2000/svg"
   xmlns:svg="http://www.w3.org/2000/svg">
  <defs
     id="defs6">
    <clipPath
       clipPathUnits="userSpaceOnUse"
       id="clipPath16">
      <path
         d="M 0,1080 H 1080 V 0 H 0 Z"
         id="path14" />
    </clipPath>
  </defs>
  <g
     id="g8"
     transform="matrix(1.3333333,0,0,-1.3333333,0,1440)">
    <g
       id="g10">
      <g
         id="g12"
         clip-path="url(#clipPath16)">
        <g
           id="g18"
           transform="translate(653.7312,444.6917)">
          <path
             d="m 0,0 v -0.058 c 37.358,0 74.716,0.025 112.073,-0.023 6.444,-0.009 12.587,0.727 17.951,4.747 8.461,6.34 12.178,17.864 8.957,28.038 -3.224,10.182 -12.404,17.598 -23.473,17.62 -76.638,0.155 -153.276,0.095 -229.914,0.05 -2.162,-0.001 -4.396,-0.355 -6.472,-0.965 -11.515,-3.382 -19.695,-15.18 -18.333,-26.242 1.646,-13.362 11.474,-23.011 24.666,-23.088 C -76.364,-0.144 -38.182,0 0,0 m 1.643,190.839 c -38.465,0 -76.93,0.129 -115.394,-0.065 -14.755,-0.074 -25.999,-11.642 -25.641,-25.546 0.353,-13.679 11.487,-24.759 25.842,-24.784 75.831,-0.136 151.661,-0.057 227.492,-0.088 6.3,-0.002 11.902,1.836 16.792,5.757 8.401,6.736 11.589,18.121 8.003,28.305 -3.477,9.877 -12.162,16.302 -23.349,16.348 -37.914,0.153 -75.83,0.058 -113.745,0.073 M -0.02,332.262 c -33.799,0 -67.597,0.005 -101.396,-0.007 -4.396,-0.002 -8.827,0.255 -13.18,-0.202 -19.065,-2.001 -30.182,-20.092 -22.106,-36.299 5.663,-11.363 15.716,-15.174 27.978,-15.155 72.544,0.109 145.088,0.064 217.631,0.026 4.434,-0.002 8.776,0.367 13.025,1.636 11.297,3.376 18.088,12.71 17.957,24.662 -0.126,11.399 -7.054,20.489 -18.062,23.77 -4.533,1.351 -9.158,1.596 -13.856,1.59 C 71.974,332.241 35.977,332.26 -0.02,332.262 m -282.107,-87.74 c -0.037,0 -0.075,0 -0.112,0 0,36.52 0.514,73.048 -0.122,109.556 -0.93,53.447 -52.703,93.252 -104.861,81.281 -41.82,-9.597 -68.738,-43.932 -68.879,-88.802 -0.226,-71.666 0.027,-143.334 -0.203,-214.999 -0.023,-7.142 1.959,-9.488 9.283,-9.449 51.621,0.276 103.244,0.304 154.864,-0.018 8.084,-0.051 10.247,2.639 10.178,10.402 -0.329,37.341 -0.148,74.686 -0.148,112.029 M 282.505,47.614 c 0,-105.521 -0.076,-211.043 0.104,-316.564 0.021,-12.128 -2.507,-22.503 -13.852,-28.626 -11.126,-6.006 -21.562,-3.471 -31.831,3.007 -37.646,23.747 -75.499,47.166 -113.094,70.991 -5.741,3.639 -9.839,3.611 -15.436,-0.449 -32.248,-23.392 -64.788,-46.382 -97.219,-69.522 -14.292,-10.197 -24.715,-10.127 -39.201,0.239 -31.729,22.706 -63.601,45.215 -95.106,68.227 -6.197,4.526 -10.276,4.41 -16.451,-0.104 -30.829,-22.54 -62.154,-44.4 -93.077,-66.813 -10.692,-7.749 -21.637,-12.5 -34.34,-5.967 -12.715,6.54 -15.196,18.327 -15.184,31.451 0.102,106.895 0.059,213.791 0.054,320.686 0,13.107 -0.014,13.121 -13.1,13.122 -59.356,0.006 -118.712,-0.002 -178.067,0.015 -3.569,0.001 -7.17,-0.096 -10.701,0.319 -16.819,1.978 -26.053,12.271 -26.06,29.184 -0.035,86.011 10e-4,172.022 -0.016,258.033 -10e-4,6.338 0.648,12.578 1.598,18.848 9.969,65.817 69.5,117.859 135.932,117.927 175.32,0.18 350.64,0.193 525.959,-0.003 69.694,-0.078 128.842,-59.321 129.005,-129.085 0.245,-104.971 0.064,-209.944 0.083,-314.916"
             style="fill:#000000;fill-opacity:1;fill-rule:nonzero;stroke:none"
             id="path20" />
        </g>
      </g>
    </g>
  </g>
</svg>
