<?xml version="1.0" encoding="UTF-8" standalone="no"?>
<!-- Created with Inkscape (http://www.inkscape.org/) -->

<svg
   version="1.1"
   id="svg2"
   width="1440"
   height="1440"
   viewBox="0 0 1440 1440"
   xmlns="http://www.w3.org/2000/svg"
   xmlns:svg="http://www.w3.org/2000/svg">
  <defs
     id="defs6">
    <clipPath
       clipPathUnits="userSpaceOnUse"
       id="clipPath16">
      <path
         d="M 0,1080 H 1080 V 0 H 0 Z"
         id="path14" />
    </clipPath>
  </defs>
  <g
     id="g8"
     transform="matrix(1.3333333,0,0,-1.3333333,0,1440)">
    <g
       id="g10">
      <g
         id="g12"
         clip-path="url(#clipPath16)">
        <g
           id="g18"
           transform="translate(824.001,819.1394)">
          <path
             d="m 0,0 c -2.592,-24.229 -5.074,-47.453 -7.562,-70.675 -0.991,-9.25 -1.818,-18.523 -3.105,-27.731 -0.372,-2.664 -2.084,-5.141 -3.182,-7.704 -2.309,1.209 -5.055,1.966 -6.852,3.703 -9.4,9.082 -18.507,18.467 -27.821,27.639 -5.947,5.857 -11.204,5.993 -16.973,0.003 -66.68,-69.239 -149.094,-111.347 -240.014,-138.301 -81.163,-24.062 -164.218,-35.755 -248.941,-35.099 -1.583,0.012 -3.184,-0.032 -4.746,0.18 -5.085,0.688 -8.677,4.674 -8.809,9.632 -0.131,4.907 3.199,9.263 8.338,10.024 3.69,0.547 7.501,0.316 11.258,0.355 88.696,0.923 175.448,14.118 259.781,41.869 63.105,20.765 121.943,49.809 173.227,92.674 12.287,10.27 23.698,21.606 35.266,32.708 6.453,6.192 6.174,11.303 -0.293,17.824 -9.205,9.282 -18.559,18.419 -27.636,27.824 -1.572,1.629 -3.375,4.825 -2.744,6.31 0.703,1.659 3.985,2.859 6.273,3.115 32.262,3.615 64.547,7.028 96.825,10.509 C -1.735,5.503 0.132,4.113 0,0"
             style="fill:#000000;fill-opacity:1;fill-rule:nonzero;stroke:none"
             id="path20" />
        </g>
        <g
           id="g22"
           transform="translate(360.6341,377.9621)">
          <path
             d="m 0,0 c -24.571,0.442 -45.127,3.206 -63.642,13.851 -5.864,3.371 -11.37,8.04 -15.712,13.226 -7.15,8.54 -6.712,18.282 -0.089,27.331 5.933,8.106 14.168,13.311 23.294,16.809 35.92,13.77 71.958,13.809 107.585,-0.85 C 58.207,67.581 64.622,62.931 69.938,57.826 80.801,47.394 80.633,34.646 70.355,23.631 61.405,14.041 49.736,9.149 37.466,5.573 32.163,4.028 26.732,2.713 21.266,1.99 13.038,0.9 4.729,0.422 0,0"
             style="fill:#000000;fill-opacity:1;fill-rule:nonzero;stroke:none"
             id="path24" />
        </g>
        <g
           id="g26"
           transform="translate(722.5844,457.9655)">
          <path
             d="m 0,0 c -21.641,1.476 -42.451,4.585 -61.374,15.404 -10.248,5.86 -19.593,13.257 -19.592,26.295 0,13.301 9.488,20.782 20.019,26.604 22.809,12.611 47.625,15.194 73.084,13.507 C 27.629,80.784 42.841,77.862 56.702,70.55 62.74,67.365 68.663,63.384 73.491,58.606 83.996,48.21 83.809,35.644 73.687,24.856 64.276,14.825 52.13,9.322 39.091,6.395 26.23,3.507 13.044,2.072 0,0"
             style="fill:#000000;fill-opacity:1;fill-rule:nonzero;stroke:none"
             id="path28" />
        </g>
        <g
           id="g30"
           transform="translate(540.363,417.9914)">
          <path
             d="m 0,0 c -21.312,0.782 -41.933,3.834 -60.771,14.304 -4.774,2.653 -9.324,6.104 -13.141,10.006 -10.1,10.323 -10.1,22.647 -0.416,33.379 7.081,7.846 16.156,12.683 25.991,16.032 32.418,11.037 64.98,11.135 97.128,-0.571 C 57.12,70.117 65.228,65.048 71.885,59.161 84.176,48.291 83.779,34.33 71.991,22.912 60.302,11.589 45.471,6.597 29.986,3.648 20.117,1.768 10.004,1.172 0,0"
             style="fill:#000000;fill-opacity:1;fill-rule:nonzero;stroke:none"
             id="path32" />
        </g>
        <g
           id="g34"
           transform="translate(640.2802,420.2785)">
          <path
             d="m 0,0 c 55.607,-29.888 109.177,-29.813 164.715,1.038 -1.941,-5.347 -2.469,-10.913 -5.481,-14.213 -5.632,-6.17 -11.923,-12.698 -19.309,-16.145 -38.214,-17.837 -76.987,-17.784 -115.223,0.007 -7.078,3.293 -13.27,9.298 -18.623,15.186 C 2.818,-10.54 1.945,-4.783 0,0"
             style="fill:#000000;fill-opacity:1;fill-rule:nonzero;stroke:none"
             id="path36" />
        </g>
        <g
           id="g38"
           transform="translate(438.5214,380.0356)">
          <path
             d="m 0,0 c 0.571,-8.089 -3.429,-14.468 -9.204,-19.886 -10.852,-10.18 -24.158,-15.654 -38.418,-18.825 -29.089,-6.467 -57.88,-5.772 -85.44,6.4 -8.115,3.584 -15.438,9.424 -22.311,15.199 -5.051,4.244 -7.5,10.529 -6.801,17.176 C -108.254,-30.273 -54.557,-30.23 0,0"
             style="fill:#000000;fill-opacity:1;fill-rule:nonzero;stroke:none"
             id="path40" />
        </g>
        <g
           id="g42"
           transform="translate(641.5187,380.1075)">
          <path
             d="m 0,0 c 54.392,-30.375 108.091,-30.295 162.135,-0.073 0.736,-7.008 -2.483,-12.904 -7.357,-18.016 C 143.995,-29.396 130.17,-35.086 115.344,-38.556 86.702,-45.261 58.29,-44.582 30.951,-33.188 22.405,-29.626 14.658,-23.656 7.347,-17.79 2.021,-13.517 -0.562,-7.052 0,0"
             style="fill:#000000;fill-opacity:1;fill-rule:nonzero;stroke:none"
             id="path44" />
        </g>
        <g
           id="g46"
           transform="translate(457.8866,338.9991)">
          <path
             d="m 0,0 c 55.397,-29.78 108.984,-29.75 164.604,1.257 -2.236,-5.823 -2.904,-11.655 -6.131,-15.072 -5.867,-6.211 -12.509,-12.636 -20.134,-16.083 -37.777,-17.08 -76.02,-16.888 -113.608,0.679 C 17.492,-25.835 11.2,-19.668 5.668,-13.68 2.525,-10.278 1.809,-4.634 0,0"
             style="fill:#000000;fill-opacity:1;fill-rule:nonzero;stroke:none"
             id="path48" />
        </g>
        <g
           id="g50"
           transform="translate(803.7437,461.236)">
          <path
             d="m 0,0 c 0.532,-8.684 -3.943,-15.233 -10.137,-20.789 -10.904,-9.78 -24.073,-15.11 -38.17,-18.096 -30.803,-6.526 -61.102,-5.532 -89.725,8.821 -7.207,3.614 -13.653,9.424 -19.22,15.374 -3.308,3.536 -4.217,9.314 -5.599,14.267 C -108.239,-30.246 -54.537,-30.309 0,0"
             style="fill:#000000;fill-opacity:1;fill-rule:nonzero;stroke:none"
             id="path52" />
        </g>
        <g
           id="g54"
           transform="translate(438.5359,339.4831)">
          <path
             d="m 0,0 c 0.52,-7.368 -2.831,-13.443 -8,-18.663 -10.676,-10.779 -24.118,-16.398 -38.552,-19.763 -31.365,-7.312 -62.132,-5.971 -91.429,8.369 -6.589,3.225 -12.468,8.324 -17.88,13.406 -4.67,4.386 -7.077,10.366 -6.315,16.762 C -108.272,-30.346 -54.559,-30.283 0,0"
             style="fill:#000000;fill-opacity:1;fill-rule:nonzero;stroke:none"
             id="path56" />
        </g>
        <g
           id="g58"
           transform="translate(641.5405,339.5036)">
          <path
             d="m 0,0 c 54.48,-30.339 108.188,-30.294 162.182,0.016 0.634,-8.064 -3.411,-14.423 -9.162,-19.866 -10.51,-9.945 -23.409,-15.348 -37.259,-18.557 -31.572,-7.316 -62.518,-6.094 -91.963,8.541 -6.404,3.182 -12.127,8.128 -17.396,13.078 C 1.715,-12.385 -0.657,-6.412 0,0"
             style="fill:#000000;fill-opacity:1;fill-rule:nonzero;stroke:none"
             id="path60" />
        </g>
        <g
           id="g62"
           transform="translate(438.5309,298.9389)">
          <path
             d="M 0,0 C 0.537,-8.165 -3.48,-14.531 -9.272,-19.959 -21.08,-31.026 -35.659,-36.508 -51.16,-39.54 c -30.064,-5.882 -59.537,-4.351 -87.312,9.716 -6.544,3.315 -12.361,8.457 -17.729,13.579 -4.48,4.275 -6.721,10.117 -5.964,16.279 C -108.253,-30.347 -54.546,-30.384 0,0"
             style="fill:#000000;fill-opacity:1;fill-rule:nonzero;stroke:none"
             id="path64" />
        </g>
        <g
           id="g66"
           transform="translate(641.4738,299.0152)">
          <path
             d="m 0,0 c 54.112,-30.412 107.82,-30.461 161.671,-0.369 1.017,-4.779 0.185,-10.249 -4.815,-15.137 -5.721,-5.592 -11.878,-11.532 -19.005,-14.76 C 99.928,-47.441 61.611,-47.501 23.766,-29.88 17.321,-26.879 11.68,-21.723 6.397,-16.783 1.7,-12.391 -0.467,-6.398 0,0"
             style="fill:#000000;fill-opacity:1;fill-rule:nonzero;stroke:none"
             id="path68" />
        </g>
        <g
           id="g70"
           transform="translate(457.921,298.4265)">
          <path
             d="m 0,0 c 55.373,-29.776 108.95,-29.802 162.858,0.333 1.095,-5.453 -0.661,-10.945 -4.682,-14.711 -6.27,-5.874 -12.767,-12.348 -20.42,-15.762 -37.417,-16.688 -75.31,-16.688 -112.52,0.658 C 17.664,-25.953 11.18,-19.405 5.308,-13.195 2.277,-9.99 1.691,-4.473 0,0"
             style="fill:#000000;fill-opacity:1;fill-rule:nonzero;stroke:none"
             id="path72" />
        </g>
        <g
           id="g74"
           transform="translate(620.9471,379.935)">
          <path
             d="m 0,0 c 0.849,-8.706 -3.862,-15.148 -10.059,-20.708 -10.58,-9.492 -23.344,-14.71 -37.001,-17.796 -29.285,-6.616 -58.254,-5.919 -85.978,6.375 -8.269,3.667 -15.658,9.768 -22.654,15.693 -4.712,3.99 -6.98,9.993 -6.098,16.452 C -107.977,-30.128 -54.333,-30.12 0,0"
             style="fill:#000000;fill-opacity:1;fill-rule:nonzero;stroke:none"
             id="path76" />
        </g>
        <g
           id="g78"
           transform="translate(459.1664,420.5141)">
          <path
             d="m 0,0 c 54.178,-30.121 107.763,-30.06 161.678,-0.057 1.052,-7.608 -2.824,-13.639 -8.13,-18.894 -10.92,-10.816 -24.615,-16.401 -39.291,-19.655 -29.116,-6.454 -57.939,-5.749 -85.519,6.432 -8.118,3.586 -15.413,9.495 -22.282,15.291 C 1.567,-12.758 -0.921,-6.662 0,0"
             style="fill:#000000;fill-opacity:1;fill-rule:nonzero;stroke:none"
             id="path80" />
        </g>
      </g>
    </g>
  </g>
</svg>
