<?xml version="1.0" standalone="no"?>
<!DOCTYPE svg PUBLIC "-//W3C//DTD SVG 20010904//EN"
 "http://www.w3.org/TR/2001/REC-SVG-20010904/DTD/svg10.dtd">
<svg version="1.0" xmlns="http://www.w3.org/2000/svg"
 width="4500.000000pt" height="4500.000000pt" viewBox="0 0 4500.000000 4500.000000"
 preserveAspectRatio="xMidYMid meet">

<g transform="translate(0.000000,4500.000000) scale(0.100000,-0.100000)"
fill="#000000" stroke="none">
<path d="M21310 38824 c-30 -2 -147 -8 -260 -14 -1995 -104 -3553 -621 -4825
-1601 -322 -248 -701 -603 -985 -924 -596 -671 -1141 -989 -1920 -1120 -465
-78 -815 -187 -1209 -376 -617 -296 -1162 -706 -1806 -1360 -642 -652 -1097
-1263 -1420 -1909 -360 -718 -511 -1352 -566 -2375 -27 -514 3 -1994 47 -2295
42 -291 156 -643 359 -1110 355 -817 841 -1514 1700 -2435 239 -257 276 -328
240 -463 -15 -54 -43 -100 -169 -281 -84 -119 -264 -378 -401 -576 -322 -466
-455 -652 -696 -972 -228 -302 -273 -381 -273 -477 0 -105 56 -204 250 -448
234 -292 511 -616 958 -1123 338 -383 417 -481 503 -618 111 -180 201 -406
238 -597 9 -47 18 -94 21 -105 3 -11 10 -182 14 -380 9 -390 22 -508 75 -669
34 -104 104 -238 167 -321 82 -109 91 -138 96 -302 15 -523 -187 -1004 -551
-1309 -249 -209 -609 -383 -967 -468 -298 -71 -646 -75 -965 -10 -44 9 -153
38 -243 65 -142 43 -574 159 -592 159 -3 0 -16 -20 -28 -44 l-21 -45 145 -140
c79 -77 204 -185 277 -240 705 -528 1497 -872 2389 -1035 676 -124 1522 -145
2293 -55 534 61 1123 197 1856 428 428 135 1319 440 1383 474 88 47 157 115
201 197 31 60 45 109 85 303 76 367 142 623 230 902 300 943 710 1759 1325
2640 270 386 461 708 695 1170 212 419 273 617 273 900 1 447 -224 823 -714
1192 -440 331 -768 495 -1994 998 -1358 556 -2224 1061 -2980 1737 -282 252
-650 644 -905 962 -585 730 -980 1512 -1175 2321 -159 660 -187 1369 -84 2095
45 319 143 749 243 1071 62 200 73 227 80 209 22 -56 84 -351 140 -670 109
-612 154 -852 202 -1064 473 -2122 1671 -3689 3649 -4770 311 -170 536 -275
1486 -691 272 -119 649 -287 839 -373 414 -187 1175 -566 1316 -655 381 -240
674 -555 863 -927 117 -230 173 -406 221 -693 120 -717 82 -1325 -115 -1872
-83 -231 -175 -401 -477 -885 -291 -466 -723 -1168 -910 -1480 -413 -688 -635
-1219 -737 -1765 -41 -216 -50 -355 -68 -988 -14 -525 -15 -672 -5 -890 32
-701 114 -1047 409 -1712 363 -818 820 -1540 1402 -2215 154 -179 599 -626
781 -785 732 -638 1591 -1179 2360 -1485 518 -207 1066 -330 1587 -356 190
-10 2301 27 2658 46 485 27 851 80 1270 187 1399 354 2611 1248 3578 2635 251
360 413 739 612 1428 95 329 118 455 190 1032 25 201 48 380 51 397 8 38 -40
36 459 11 750 -38 1003 -66 1199 -131 258 -86 481 -260 641 -499 126 -188 281
-529 350 -771 72 -249 96 -418 96 -664 0 -258 -30 -435 -121 -721 -28 -87 -83
-276 -121 -419 -39 -143 -79 -289 -89 -323 l-19 -64 45 -20 46 -20 112 119
c663 697 981 1160 1170 1703 126 362 163 626 132 940 -46 456 -123 834 -250
1215 -234 699 -588 1253 -1157 1810 -620 606 -1365 1046 -2302 1360 -336 112
-458 145 -1237 329 -195 46 -348 86 -340 90 8 3 129 37 268 76 367 103 384
109 752 265 184 79 454 193 600 255 337 142 761 352 958 474 289 179 617 441
877 701 623 623 1024 1361 1170 2149 42 229 58 412 58 666 0 445 -61 815 -208
1255 -197 594 -522 1157 -989 1715 -201 240 -308 340 -476 446 -80 50 -147 90
-149 88 -1 -1 62 -159 142 -351 209 -502 260 -652 293 -852 84 -515 -228
-1098 -690 -1290 -147 -61 -215 -74 -386 -74 -175 -1 -249 14 -386 77 -169 79
-365 240 -511 421 -83 103 -274 390 -348 524 -155 279 -285 622 -345 911 -51
247 -55 299 -110 1375 -22 424 -60 1157 -85 1630 -48 926 -95 1900 -120 2485
-17 409 -38 746 -61 985 -140 1477 -526 2768 -1159 3870 -246 430 -633 989
-1020 1475 -1184 1488 -2487 2471 -4055 3058 -946 354 -1890 551 -3040 633
-145 10 -1169 21 -1290 13z m-3085 -3504 c1902 -86 3542 -710 5000 -1905 338
-277 807 -727 1105 -1060 1462 -1634 2438 -3555 2864 -5632 193 -943 276
-1858 263 -2898 -6 -455 -13 -621 -42 -1010 -99 -1301 -421 -2490 -989 -3660
-171 -351 -309 -599 -601 -1080 -598 -985 -1050 -1792 -1414 -2523 -173 -349
-243 -511 -331 -769 -143 -418 -204 -767 -204 -1168 1 -385 44 -628 189 -1054
225 -659 538 -1219 948 -1697 52 -60 174 -186 272 -279 245 -233 431 -419 490
-488 l49 -59 -24 -44 c-29 -52 -25 -51 -180 -23 -167 30 -219 44 -375 106
-1042 410 -1918 1354 -2295 2471 -124 368 -178 674 -187 1064 -12 526 54 872
271 1411 234 583 516 1172 970 2025 265 498 385 709 824 1444 495 829 663
1125 808 1423 343 707 540 1498 654 2630 30 304 68 810 81 1095 20 442 2 1276
-36 1635 -96 913 -214 1509 -446 2260 -557 1803 -1675 3527 -3152 4858 -1342
1210 -2950 1987 -4734 2286 -507 85 -817 115 -1608 151 -115 5 -255 16 -310
25 -145 22 -305 57 -305 67 0 15 137 98 253 153 280 134 572 194 1112 230 390
25 742 30 1080 15z"/>
</g>
</svg>
