<?xml version="1.0" standalone="no"?>
<!DOCTYPE svg PUBLIC "-//W3C//DTD SVG 20010904//EN"
 "http://www.w3.org/TR/2001/REC-SVG-20010904/DTD/svg10.dtd">
<svg version="1.0" xmlns="http://www.w3.org/2000/svg"
 width="4500.000000pt" height="4500.000000pt" viewBox="0 0 4500.000000 4500.000000"
 preserveAspectRatio="xMidYMid meet">

<g transform="translate(0.000000,4500.000000) scale(0.100000,-0.100000)"
fill="#000000" stroke="none">
<path d="M17610 37464 c-36 -2 -157 -8 -270 -14 -1607 -84 -3225 -473 -4715
-1135 -2459 -1091 -4541 -2904 -5967 -5195 -465 -747 -877 -1586 -1186 -2415
-407 -1091 -655 -2240 -746 -3460 -50 -668 -47 -1440 9 -2130 190 -2340 963
-4587 2238 -6505 752 -1132 1672 -2137 2742 -2996 715 -573 1490 -1077 2338
-1518 92 -48 167 -89 167 -92 0 -2 -1531 -3 -3402 -3 -2489 1 -3427 -2 -3493
-10 -229 -29 -353 -78 -455 -181 -112 -112 -165 -249 -190 -495 -14 -134 -8
-615 10 -795 103 -1050 469 -1885 1099 -2510 298 -296 579 -494 963 -679 455
-220 897 -340 1500 -408 144 -16 743 -18 9683 -21 6950 -2 9581 0 9720 8 1074
63 1972 438 2636 1100 633 632 993 1443 1101 2480 18 172 18 808 0 910 -37
206 -88 325 -181 413 -89 85 -190 129 -374 164 -72 14 -464 17 -3327 24 -2466
6 -3288 11 -3425 21 l-180 13 140 74 c1664 881 3033 1973 4186 3341 1100 1304
1958 2851 2497 4501 835 2553 902 5287 189 7759 -525 1819 -1442 3543 -2653
4990 -1008 1204 -2189 2201 -3530 2983 -1461 850 -3076 1412 -4749 1652 -377
54 -695 87 -1130 116 -153 10 -1109 20 -1245 13z m1140 -2574 c1794 -109 3476
-645 4994 -1592 696 -434 1313 -925 1912 -1523 827 -825 1471 -1704 2005
-2740 1072 -2079 1439 -4481 1038 -6793 -480 -2772 -2036 -5259 -4339 -6932
-715 -519 -1529 -966 -2360 -1295 -1079 -426 -2129 -658 -3345 -737 -244 -15
-966 -15 -1205 1 -858 56 -1574 177 -2348 396 -1320 374 -2613 1033 -3712
1891 -1321 1031 -2374 2329 -3105 3827 -910 1865 -1240 3927 -969 6057 435
3433 2433 6405 5426 8074 1656 922 3591 1406 5523 1380 177 -2 395 -9 485 -14z"/>
<path d="M17605 33629 c-3364 -185 -6338 -2039 -7950 -4954 -121 -219 -315
-619 -418 -860 -603 -1422 -851 -2976 -722 -4529 233 -2805 1697 -5347 4020
-6981 1367 -962 2997 -1556 4685 -1709 434 -40 1054 -51 1435 -27 1886 121
3597 748 5095 1870 374 280 665 534 1030 900 362 363 612 650 904 1041 1041
1392 1697 3082 1865 4810 39 394 45 533 45 965 0 435 -7 585 -45 955 -267
2594 -1659 5019 -3810 6635 -1142 858 -2454 1449 -3820 1719 -371 74 -682 117
-1084 151 -224 19 -983 28 -1230 14z m1840 -3824 c80 -28 184 -83 270 -143
104 -73 3733 -3697 3817 -3812 30 -41 108 -163 173 -270 64 -107 126 -208 137
-223 17 -24 18 -30 6 -46 -80 -111 -296 -376 -335 -413 -96 -89 -185 -115
-366 -105 -223 12 -373 73 -537 219 -234 207 -440 408 -954 928 -297 300
-1039 1045 -1650 1655 -611 611 -1135 1142 -1164 1180 -152 202 -197 410 -129
598 70 193 239 373 404 433 60 22 80 24 173 21 64 -3 125 -11 155 -22z m-5071
-1284 c110 -62 232 -133 270 -158 54 -35 400 -374 1466 -1437 3182 -3172 6180
-6175 6223 -6232 118 -157 170 -288 171 -429 0 -102 -17 -164 -72 -265 -42
-78 -201 -239 -283 -288 -218 -128 -449 -102 -686 77 -48 37 -1288 1271 -3238
3223 -3481 3484 -4339 4350 -4402 4440 -95 136 -152 331 -160 545 -5 122 -3
150 12 190 25 66 111 153 275 278 74 57 153 119 175 138 22 19 42 34 45 32 3
-2 95 -53 204 -114z m-1364 -5166 c209 -32 359 -94 475 -196 39 -34 201 -186
360 -337 355 -338 3309 -3298 3380 -3387 200 -251 232 -494 98 -725 -47 -80
-189 -223 -268 -270 -219 -129 -452 -103 -693 80 -46 35 -818 800 -1932 1917
-1414 1415 -1868 1876 -1907 1934 -29 42 -99 161 -156 265 -58 104 -113 204
-123 221 -13 23 -16 37 -9 46 6 8 63 81 129 163 228 286 253 304 436 304 63 0
158 -7 210 -15z"/>
<path d="M36260 34589 c-841 -50 -1499 -381 -1605 -806 -31 -129 -35 -613 -35
-4822 l0 -4171 1880 0 1880 0 0 4167 c0 4317 -1 4409 -39 4773 -17 153 -75
265 -200 382 -281 266 -812 441 -1453 478 -192 11 -232 11 -428 -1z"/>
<path d="M33888 24069 c-361 -28 -661 -157 -869 -375 -166 -175 -270 -404
-304 -673 -38 -302 -58 -5192 -26 -6286 30 -999 45 -1321 71 -1531 86 -669
342 -1280 756 -1799 121 -151 392 -421 548 -544 564 -448 1220 -719 1972 -815
317 -40 741 -41 1036 -1 797 108 1497 452 2077 1020 706 691 1112 1599 1171
2620 14 238 13 6965 0 7145 -41 531 -261 900 -657 1099 -161 80 -333 124 -556
141 -160 12 -5059 11 -5219 -1z"/>
<path d="M32696 10898 c-6 -1326 1 -2381 19 -2788 17 -377 110 -614 325 -831
179 -181 411 -296 701 -350 110 -20 157 -21 1492 -31 898 -6 1823 -6 2655 0
1218 10 1282 11 1387 31 548 101 903 452 1015 1002 39 189 41 335 37 2274 -3
1656 -5 1884 -20 1990 -9 66 -16 126 -17 133 0 7 -55 -38 -123 -100 -312 -288
-634 -529 -1002 -751 -169 -102 -591 -310 -775 -382 -1815 -713 -3742 -366
-5335 960 -44 37 -139 120 -212 186 -73 65 -134 119 -136 119 -2 0 -7 -658
-11 -1462z"/>
</g>
</svg>
