<?xml version="1.0" standalone="no"?>
<!DOCTYPE svg PUBLIC "-//W3C//DTD SVG 20010904//EN"
 "http://www.w3.org/TR/2001/REC-SVG-20010904/DTD/svg10.dtd">
<svg version="1.0" xmlns="http://www.w3.org/2000/svg"
 width="4500.000000pt" height="4500.000000pt" viewBox="0 0 4500.000000 4500.000000"
 preserveAspectRatio="xMidYMid meet">

<g transform="translate(0.000000,4500.000000) scale(0.100000,-0.100000)"
fill="#000000" stroke="none">
<path d="M14630 38397 c-19 -13 -105 -63 -190 -112 -256 -145 -333 -210 -432
-365 -124 -193 -326 -543 -628 -1085 -360 -647 -472 -842 -538 -935 -63 -88
-170 -199 -255 -264 -120 -91 -815 -481 -1647 -926 -239 -128 -464 -253 -500
-278 -231 -163 -353 -378 -367 -647 -13 -257 66 -467 241 -639 101 -100 161
-137 561 -351 748 -400 1553 -849 1684 -939 87 -60 191 -158 248 -236 23 -30
130 -208 238 -395 367 -632 609 -1078 794 -1461 48 -99 107 -209 131 -245 193
-285 533 -457 834 -420 178 22 324 92 458 219 102 97 160 178 246 337 38 72
140 263 227 425 287 536 757 1375 838 1494 54 81 166 196 246 254 67 50 619
371 1011 589 301 168 591 320 827 434 240 116 325 172 436 289 290 306 338
714 123 1038 -61 92 -202 224 -307 288 -46 28 -262 146 -479 262 -670 357
-1350 737 -1515 847 -158 106 -293 251 -402 435 -162 272 -413 725 -783 1410
-144 266 -282 514 -307 550 -137 193 -352 338 -613 413 -138 40 -141 40 -180
14z"/>
<path d="M25225 36263 c-532 -42 -893 -120 -1307 -283 -738 -289 -1403 -809
-1803 -1410 -295 -444 -466 -838 -646 -1495 -119 -432 -1021 -4074 -1685
-6805 -299 -1228 -300 -1231 -329 -1410 -25 -149 -106 -841 -99 -848 1 -2 96
12 211 32 982 168 1891 196 2785 86 1601 -198 3111 -868 4498 -1998 74 -60
136 -109 136 -108 8 7 242 570 278 665 51 136 953 3170 1497 5036 398 1362
918 3206 969 3436 81 358 105 579 104 969 0 346 -14 492 -74 790 -122 605
-394 1180 -795 1680 -120 151 -369 408 -519 537 -847 728 -1950 1142 -3021
1131 -88 -1 -178 -3 -200 -5z"/>
<path d="M18792 30970 c-597 -626 -775 -839 -1057 -1265 -372 -561 -658 -1176
-876 -1885 -27 -91 -387 -1420 -799 -2955 -412 -1534 -1190 -4435 -1730 -6445
-540 -2010 -1258 -4685 -1596 -5945 -706 -2630 -696 -2594 -734 -2691 -15 -41
-26 -74 -22 -74 3 0 3177 -847 7054 -1881 3877 -1035 7051 -1879 7054 -1876 3
3 14 50 25 104 10 54 44 193 75 308 161 604 2506 9314 3965 14725 774 2868
788 2921 843 3201 240 1208 176 2406 -189 3583 -53 168 -141 387 -149 366 -10
-29 -982 -3396 -1236 -4285 -259 -903 -402 -1389 -487 -1650 -373 -1147 -1073
-2127 -2045 -2861 -712 -537 -1542 -907 -2400 -1068 -371 -70 -597 -90 -1008
-90 -421 0 -718 26 -1106 99 -1829 345 -3342 1491 -4159 3150 -432 877 -626
1774 -585 2708 41 932 203 1694 1066 5004 392 1505 453 1749 474 1878 11 70
19 129 18 130 -2 1 -17 11 -35 23 -17 12 -35 22 -40 22 -4 -1 -149 -149 -321
-330z m-62 -14881 c180 -28 2582 -629 4356 -1089 188 -49 372 -101 410 -116
120 -47 204 -103 299 -198 103 -104 161 -202 197 -333 30 -110 30 -295 0 -415
-98 -396 -383 -625 -814 -654 l-93 -6 -725 181 c-653 162 -2974 751 -3751 951
-169 43 -341 93 -383 110 -303 126 -483 388 -503 730 -9 170 30 344 108 478
50 85 170 200 254 243 190 99 459 148 645 118z m-2688 -2784 c104 -15 2178
-537 6363 -1601 2197 -559 2034 -516 2171 -579 203 -93 355 -260 407 -445 85
-300 14 -655 -172 -865 -171 -193 -459 -287 -752 -246 -87 13 -778 185 -3749
936 -965 244 -2230 563 -2810 710 -1501 379 -1825 463 -1910 496 -260 100
-447 296 -512 536 -26 98 -29 302 -6 408 74 334 317 590 617 650 89 18 236 18
353 0z"/>
<path d="M20795 22403 c-331 -17 -1050 -106 -1079 -134 -11 -10 125 -250 238
-423 466 -708 1056 -1210 1793 -1525 572 -244 1246 -374 1848 -358 568 16
1055 137 1558 388 226 112 583 331 571 350 -20 34 -462 366 -689 519 -1065
716 -2174 1099 -3420 1180 -135 9 -671 11 -820 3z"/>
<path d="M32968 14680 c-61 -11 -171 -47 -223 -73 -131 -65 -288 -208 -382
-348 -172 -256 -473 -794 -742 -1327 -84 -165 -163 -278 -268 -378 -106 -104
-194 -160 -466 -301 -445 -230 -1130 -610 -1255 -696 -151 -104 -270 -234
-340 -372 -54 -108 -73 -178 -79 -300 -5 -92 -2 -124 16 -195 63 -249 221
-439 511 -615 160 -97 367 -213 777 -433 408 -221 628 -344 702 -395 62 -42
176 -152 226 -217 69 -90 262 -430 655 -1155 128 -236 253 -461 277 -499 157
-244 407 -373 763 -392 l115 -7 138 86 c246 154 310 214 440 414 183 281 346
568 608 1071 188 359 238 439 353 560 116 121 188 170 468 314 426 220 1151
622 1282 711 81 54 218 188 271 262 195 274 200 600 14 871 -143 209 -284 305
-1044 714 -637 342 -786 437 -963 619 -169 172 -274 341 -674 1085 -315 585
-347 636 -477 759 -115 108 -236 179 -373 217 -82 24 -255 34 -330 20z"/>
</g>
</svg>
