<?xml version="1.0" standalone="no"?>
<!DOCTYPE svg PUBLIC "-//W3C//DTD SVG 20010904//EN"
 "http://www.w3.org/TR/2001/REC-SVG-20010904/DTD/svg10.dtd">
<svg version="1.0" xmlns="http://www.w3.org/2000/svg"
 width="512.000000pt" height="512.000000pt" viewBox="0 0 512.000000 512.000000"
 preserveAspectRatio="xMidYMid meet">

<g transform="translate(0.000000,512.000000) scale(0.100000,-0.100000)"
fill="#000000" stroke="none">
<path d="M2365 5109 c-837 -69 -1573 -527 -2005 -1249 -328 -549 -434 -1223
-294 -1860 191 -864 847 -1589 1689 -1865 825 -271 1693 -121 2385 413 205
158 459 444 603 678 282 460 413 1015 366 1549 -69 788 -484 1483 -1151 1927
-120 80 -381 212 -522 263 -334 122 -714 173 -1071 144z m500 -574 c790 -122
1433 -705 1630 -1479 46 -182 59 -293 59 -496 0 -203 -13 -314 -59 -496 -262
-1028 -1281 -1669 -2325 -1463 -701 139 -1278 648 -1504 1330 -166 498 -131
1031 98 1503 299 617 903 1039 1596 1115 113 13 381 5 505 -14z"/>
<path d="M2535 4200 c-41 -16 -50 -39 -50 -127 0 -80 1 -86 28 -109 15 -13 37
-24 47 -24 10 0 32 11 47 24 27 23 28 29 28 110 0 72 -3 88 -20 105 -25 24
-54 32 -80 21z"/>
<path d="M1402 3730 c-15 -14 -22 -33 -22 -57 0 -32 8 -45 60 -95 41 -41 67
-58 85 -58 38 0 60 15 74 49 16 38 0 71 -68 134 -56 53 -93 60 -129 27z"/>
<path d="M3572 3676 c-34 -35 -62 -71 -62 -80 0 -52 57 -94 103 -77 12 5 46
34 75 64 39 42 52 63 52 86 0 41 -31 71 -73 71 -28 0 -44 -10 -95 -64z"/>
<path d="M2535 3690 c-51 -20 -50 -13 -53 -487 l-3 -444 -59 -59 -60 -60 -225
0 c-250 0 -289 -7 -301 -54 -11 -44 4 -76 41 -92 26 -11 87 -14 263 -14 l228
0 36 -44 c20 -23 52 -50 71 -60 49 -22 133 -21 180 4 20 11 42 20 48 20 5 0
149 -72 319 -160 170 -88 320 -160 334 -160 31 0 63 28 71 61 5 19 0 33 -17
52 -13 15 -161 98 -333 186 l-310 159 -6 51 c-7 56 -38 105 -89 141 l-29 21
-3 449 c-3 434 -4 450 -23 469 -25 24 -54 32 -80 21z"/>
<path d="M937 2623 c-8 -10 -19 -30 -22 -45 -6 -22 -1 -33 23 -58 28 -28 36
-30 101 -30 81 0 114 12 130 47 16 34 14 47 -10 77 -19 25 -25 26 -113 26 -76
0 -96 -3 -109 -17z"/>
<path d="M3994 2634 c-55 -12 -76 -87 -35 -127 19 -19 32 -22 107 -22 81 0 87
1 110 28 30 35 30 59 0 94 -21 24 -31 27 -92 29 -38 1 -79 0 -90 -2z"/>
<path d="M1428 1552 c-44 -45 -58 -66 -58 -88 0 -62 55 -97 108 -70 44 23 122
112 122 139 0 41 -36 77 -77 77 -31 0 -45 -9 -95 -58z"/>
<path d="M3536 1589 c-19 -15 -26 -29 -26 -56 0 -31 9 -45 58 -95 45 -44 66
-58 88 -58 59 0 98 55 73 103 -17 32 -80 96 -111 113 -36 19 -51 18 -82 -7z"/>
<path d="M2530 1183 c-43 -16 -50 -33 -50 -129 0 -88 1 -94 26 -113 30 -24 43
-26 77 -10 35 16 47 49 47 129 0 57 -4 73 -22 94 -25 26 -54 37 -78 29z"/>
</g>
</svg>
