<?xml version="1.0" encoding="UTF-8" standalone="no"?>
<!-- Created with Inkscape (http://www.inkscape.org/) -->

<svg
   version="1.1"
   id="svg2"
   width="1440"
   height="1440"
   viewBox="0 0 1440 1440"
   xmlns="http://www.w3.org/2000/svg"
   xmlns:svg="http://www.w3.org/2000/svg">
  <defs
     id="defs6">
    <clipPath
       clipPathUnits="userSpaceOnUse"
       id="clipPath16">
      <path
         d="M 0,1080 H 1080 V 0 H 0 Z"
         id="path14" />
    </clipPath>
  </defs>
  <g
     id="g8"
     transform="matrix(1.3333333,0,0,-1.3333333,0,1440)">
    <g
       id="g10">
      <g
         id="g12"
         clip-path="url(#clipPath16)">
        <g
           id="g18"
           transform="translate(643.2165,639.7877)">
          <path
             d="m 0,0 c 0,-57.005 -46.212,-103.216 -103.216,-103.216 -57.005,0 -103.217,46.211 -103.217,103.216 0,57.005 46.212,103.216 103.217,103.216 C -46.212,103.216 0,57.005 0,0"
             style="fill:#000000;fill-opacity:1;fill-rule:nonzero;stroke:none"
             id="path20" />
        </g>
        <g
           id="g22"
           transform="translate(713.8991,383.9131)">
          <path
             d="m 0,0 v -29.2 c 0,-9.784 -7.931,-17.715 -17.715,-17.715 h -312.368 c -9.784,0 -17.715,7.931 -17.715,17.715 V 0 c 0,55.184 24.709,126.023 96.901,139.193 23.21,-17.287 44.83,-24.546 76.998,-24.546 32.216,0 56.707,7.386 76.713,24.232 C -22.237,124.572 0,50.808 0,0"
             style="fill:#000000;fill-opacity:1;fill-rule:nonzero;stroke:none"
             id="path24" />
        </g>
        <g
           id="g26"
           transform="translate(385.8518,555.1788)">
          <path
             d="m 0,0 c 0,-41.076 -33.299,-74.375 -74.375,-74.375 -41.076,0 -74.374,33.299 -74.374,74.375 0,41.076 33.298,74.375 74.374,74.375 C -33.299,74.375 0,41.076 0,0"
             style="fill:#000000;fill-opacity:1;fill-rule:nonzero;stroke:none"
             id="path28" />
        </g>
        <g
           id="g30"
           transform="translate(350.6252,354.7098)">
          <path
             d="m 0,0 c 0,-6.508 1.881,-12.583 5.139,-17.714 h -156.826 c -7.05,0 -12.769,5.719 -12.769,12.769 v 21.042 c 0,39.761 17.807,90.806 69.827,100.294 16.723,-12.452 32.301,-17.683 55.479,-17.683 23.216,0 40.86,5.316 55.278,17.458 1.215,-0.232 2.406,-0.487 3.583,-0.758 C 6.957,90.474 0,60.2 0,29.206 Z"
             style="fill:#000000;fill-opacity:1;fill-rule:nonzero;stroke:none"
             id="path32" />
        </g>
        <g
           id="g34"
           transform="translate(694.1483,555.1788)">
          <path
             d="m 0,0 c 0,-41.076 33.299,-74.375 74.375,-74.375 41.076,0 74.374,33.299 74.374,74.375 0,41.076 -33.298,74.375 -74.374,74.375 C 33.299,74.375 0,41.076 0,0"
             style="fill:#000000;fill-opacity:1;fill-rule:nonzero;stroke:none"
             id="path36" />
        </g>
        <g
           id="g38"
           transform="translate(729.3748,354.7098)">
          <path
             d="m 0,0 c 0,-6.508 -1.88,-12.583 -5.139,-17.714 h 156.826 c 7.05,0 12.769,5.719 12.769,12.769 v 21.042 c 0,39.761 -17.807,90.806 -69.827,100.294 C 77.906,103.939 62.328,98.708 39.15,98.708 c -23.216,0 -40.86,5.316 -55.278,17.458 -1.215,-0.232 -2.406,-0.487 -3.583,-0.758 C -6.957,90.474 0,60.2 0,29.206 Z"
             style="fill:#000000;fill-opacity:1;fill-rule:nonzero;stroke:none"
             id="path40" />
        </g>
        <g
           id="g42"
           transform="translate(643.2165,639.7877)">
          <path
             d="m 0,0 c 0,-57.005 -46.212,-103.216 -103.216,-103.216 -57.005,0 -103.217,46.211 -103.217,103.216 0,57.005 46.212,103.216 103.217,103.216 C -46.212,103.216 0,57.005 0,0"
             style="fill:#000000;fill-opacity:1;fill-rule:nonzero;stroke:none"
             id="path44" />
        </g>
        <g
           id="g46"
           transform="translate(713.8991,383.9131)">
          <path
             d="m 0,0 v -29.2 c 0,-9.784 -7.931,-17.715 -17.715,-17.715 h -312.368 c -9.784,0 -17.715,7.931 -17.715,17.715 V 0 c 0,55.184 24.709,126.023 96.901,139.193 23.21,-17.287 44.83,-24.546 76.998,-24.546 32.216,0 56.707,7.386 76.713,24.232 C -22.237,124.572 0,50.808 0,0"
             style="fill:#000000;fill-opacity:1;fill-rule:nonzero;stroke:none"
             id="path48" />
        </g>
        <g
           id="g50"
           transform="translate(385.8518,555.1788)">
          <path
             d="m 0,0 c 0,-41.076 -33.299,-74.375 -74.375,-74.375 -41.076,0 -74.374,33.299 -74.374,74.375 0,41.076 33.298,74.375 74.374,74.375 C -33.299,74.375 0,41.076 0,0"
             style="fill:#000000;fill-opacity:1;fill-rule:nonzero;stroke:none"
             id="path52" />
        </g>
        <g
           id="g54"
           transform="translate(350.6252,354.7098)">
          <path
             d="m 0,0 c 0,-6.508 1.88,-12.583 5.139,-17.714 h -156.826 c -7.05,0 -12.769,5.719 -12.769,12.769 v 21.042 c 0,39.761 17.807,90.806 69.827,100.294 16.723,-12.452 32.301,-17.683 55.479,-17.683 23.216,0 40.86,5.316 55.278,17.458 1.215,-0.232 2.406,-0.487 3.583,-0.758 C 6.957,90.474 0,60.2 0,29.206 Z"
             style="fill:#000000;fill-opacity:1;fill-rule:nonzero;stroke:none"
             id="path56" />
        </g>
        <g
           id="g58"
           transform="translate(694.1482,555.1788)">
          <path
             d="m 0,0 c 0,-41.076 33.299,-74.375 74.375,-74.375 41.076,0 74.374,33.299 74.374,74.375 0,41.076 -33.298,74.375 -74.374,74.375 C 33.299,74.375 0,41.076 0,0"
             style="fill:#000000;fill-opacity:1;fill-rule:nonzero;stroke:none"
             id="path60" />
        </g>
        <g
           id="g62"
           transform="translate(729.3748,354.7098)">
          <path
             d="m 0,0 c 0,-6.508 -1.88,-12.583 -5.139,-17.714 h 156.826 c 7.05,0 12.769,5.719 12.769,12.769 v 21.042 c 0,39.761 -17.807,90.806 -69.827,100.294 C 77.906,103.939 62.328,98.708 39.15,98.708 c -23.216,0 -40.86,5.316 -55.278,17.458 -1.215,-0.232 -2.406,-0.487 -3.583,-0.758 C -6.957,90.474 0,60.2 0,29.206 Z"
             style="fill:#000000;fill-opacity:1;fill-rule:nonzero;stroke:none"
             id="path64" />
        </g>
      </g>
    </g>
  </g>
</svg>
