<?xml version="1.0" standalone="no"?>
<!DOCTYPE svg PUBLIC "-//W3C//DTD SVG 20010904//EN"
 "http://www.w3.org/TR/2001/REC-SVG-20010904/DTD/svg10.dtd">
<svg version="1.0" xmlns="http://www.w3.org/2000/svg"
 width="4500.000000pt" height="4500.000000pt" viewBox="0 0 4500.000000 4500.000000"
 preserveAspectRatio="xMidYMid meet">

<g transform="translate(0.000000,4500.000000) scale(0.100000,-0.100000)"
fill="#000000" stroke="none">
<path d="M21440 37893 c-256 -3 -768 -21 -960 -34 -1419 -94 -2727 -556 -3858
-1363 -604 -431 -1178 -994 -1633 -1601 -410 -546 -744 -1143 -1006 -1795
-141 -351 -293 -830 -384 -1215 -29 -123 -33 -157 -34 -280 0 -129 2 -144 24
-185 38 -73 203 -310 371 -535 190 -255 720 -930 730 -930 4 0 90 88 192 195
1593 1676 3523 3085 6058 4422 1352 713 2554 1270 5430 2513 366 158 667 289
668 291 2 1 -29 12 -70 24 -40 11 -226 70 -413 130 -659 211 -591 200 -1505
245 -278 14 -680 34 -895 45 -1131 57 -2026 82 -2715 73z"/>
<path d="M34560 36724 c-95 -16 -143 -30 -196 -55 -113 -53 -200 -173 -257
-354 -44 -139 -39 -112 -312 -1840 -227 -1431 -387 -2334 -459 -2579 -86 -290
-210 -560 -371 -807 -160 -246 -723 -993 -1705 -2264 -782 -1012 -982 -1274
-1036 -1352 -73 -106 -101 -177 -129 -330 -56 -303 -192 -1114 -330 -1972
-123 -759 -144 -906 -133 -921 75 -103 252 -311 304 -359 283 -259 628 -149
752 239 31 96 93 437 267 1465 86 506 167 983 180 1060 111 641 159 901 176
964 46 172 157 321 282 380 95 44 155 54 281 48 187 -9 326 -65 437 -176 105
-106 149 -221 149 -390 0 -76 -32 -288 -160 -1056 -216 -1299 -413 -2372 -495
-2695 -108 -431 -373 -784 -722 -962 -170 -88 -318 -128 -543 -148 -149 -13
-218 -24 -325 -52 -168 -44 -339 -129 -480 -237 -157 -121 -270 -240 -529
-561 -248 -308 -558 -679 -1086 -1300 -803 -945 -785 -923 -840 -1035 -156
-318 -170 -793 -33 -1072 46 -94 132 -177 240 -230 73 -36 82 -38 172 -38 86
0 103 3 161 31 80 38 152 92 295 219 61 54 151 128 200 165 50 37 281 208 515
382 421 311 933 693 2320 1728 879 656 1569 1167 2140 1585 478 349 552 408
685 547 162 167 273 329 381 553 101 210 140 346 294 1031 269 1195 529 2326
1044 4534 841 3613 1540 6644 1561 6770 20 124 20 308 0 385 -36 136 -120 230
-270 301 -141 67 -255 94 -805 188 -889 152 -1498 232 -1620 210z"/>
<path d="M10247 36709 c-206 -27 -1862 -317 -1997 -350 -245 -61 -399 -160
-474 -306 -48 -95 -61 -293 -31 -468 38 -220 2363 -9797 2881 -11870 36 -143
81 -300 101 -350 74 -190 222 -415 359 -546 105 -100 1396 -1099 3334 -2580
536 -410 1349 -1031 1805 -1379 457 -349 865 -656 909 -682 323 -195 613 -162
851 94 127 138 185 271 185 427 0 115 -21 195 -80 317 -53 110 -106 185 -310
439 -75 94 -451 566 -835 1050 -1207 1521 -1625 2036 -1692 2087 -137 104
-276 158 -473 183 -838 107 -1400 558 -1620 1298 -58 194 -172 822 -324 1792
-156 992 -218 1410 -223 1510 -20 399 167 608 562 631 124 8 198 -5 291 -51
130 -64 232 -205 289 -400 14 -50 53 -259 86 -465 191 -1198 435 -2606 468
-2703 74 -214 214 -353 406 -402 76 -19 248 -19 340 0 100 21 221 84 286 148
128 127 186 293 196 562 l5 140 -96 525 c-92 507 -145 821 -201 1190 -63 423
-164 750 -336 1090 -143 284 -253 444 -552 803 -889 1068 -1374 1697 -1829
2373 -288 427 -484 798 -666 1259 -247 626 -396 1272 -678 2930 -190 1119
-224 1287 -293 1430 -114 234 -308 317 -644 274z"/>
<path d="M28053 36455 c-138 -24 -297 -82 -568 -207 -697 -322 -1200 -536
-2485 -1058 -799 -324 -1053 -429 -1063 -439 -4 -4 28 -13 70 -20 332 -54 852
-176 1201 -281 1551 -464 2785 -1261 3758 -2425 513 -615 980 -1390 1331
-2209 35 -83 68 -154 72 -158 12 -13 790 984 1032 1323 179 250 235 386 246
594 5 88 1 121 -31 278 -300 1481 -1002 2755 -2151 3902 -451 450 -672 607
-965 685 -110 29 -326 36 -447 15z"/>
<path d="M22375 33560 c-893 -78 -1650 -356 -2380 -875 -82 -58 -232 -156
-333 -216 -360 -215 -1007 -643 -1432 -948 -982 -702 -1808 -1437 -2435 -2166
-151 -175 -205 -283 -205 -409 0 -124 29 -196 181 -447 207 -343 389 -751 521
-1169 103 -327 158 -603 228 -1160 50 -399 70 -532 115 -764 63 -326 76 -441
82 -706 4 -192 2 -271 -11 -367 -47 -358 -190 -687 -412 -949 -33 -39 -52 -69
-48 -77 4 -6 359 -455 789 -997 722 -910 1363 -1721 1580 -2000 50 -63 145
-181 212 -262 164 -197 245 -308 292 -398 49 -95 66 -150 85 -276 58 -381 249
-625 629 -804 271 -128 886 -337 1272 -434 1592 -397 2968 -307 4219 276 301
140 415 222 510 367 62 95 75 137 86 276 37 447 187 828 483 1220 34 44 196
240 362 435 672 793 2025 2407 2031 2425 5 13 -33 119 -146 410 -35 88 -77
212 -94 275 l-31 115 1 305 c2 575 43 998 164 1695 180 1033 301 1536 508
2111 184 511 194 678 66 1062 -482 1436 -1278 2533 -2364 3257 -448 298 -880
507 -1437 696 -764 258 -1435 414 -2088 485 -173 18 -837 28 -1000 14z"/>
<path d="M18909 17427 l-43 -212 -7 -930 c-5 -777 -9 -950 -23 -1055 -112
-853 -479 -1423 -1156 -1800 -241 -134 -429 -203 -1002 -366 -1796 -510 -2772
-882 -3705 -1410 -856 -485 -1444 -995 -1850 -1604 -455 -683 -661 -1467 -622
-2368 8 -189 43 -555 55 -574 3 -4 5434 -8 12069 -8 l12063 0 7 37 c13 82 22
469 14 653 -29 696 -211 1274 -553 1763 -176 252 -691 813 -1111 1211 -1466
1387 -2745 2064 -5026 2660 -376 98 -471 127 -664 203 -824 324 -1282 857
-1449 1685 -63 316 -76 540 -76 1354 l0 641 -219 -88 c-918 -369 -1810 -534
-2786 -516 -311 6 -439 14 -700 42 -932 103 -1965 387 -3041 838 l-132 55 -43
-211z"/>
</g>
</svg>
