<?xml version="1.0" standalone="no"?>
<!DOCTYPE svg PUBLIC "-//W3C//DTD SVG 20010904//EN"
 "http://www.w3.org/TR/2001/REC-SVG-20010904/DTD/svg10.dtd">
<svg version="1.0" xmlns="http://www.w3.org/2000/svg"
 width="850.000000pt" height="827.000000pt" viewBox="0 0 850.000000 827.000000"
 preserveAspectRatio="xMidYMid meet">
<metadata>
Created by potrace 1.16, written by Peter Selinger 2001-2019
</metadata>
<g transform="translate(0.000000,827.000000) scale(0.100000,-0.100000)"
fill="#000000" stroke="none">
<path d="M1162 8035 c-448 -81 -759 -395 -837 -843 -13 -73 -15 -487 -15
-3056 0 -2618 2 -2982 15 -3065 75 -461 422 -793 890 -850 127 -16 5903 -16
6030 0 417 51 745 326 858 719 46 157 48 221 45 1080 -3 801 -3 805 -25 852
-26 57 -86 103 -154 117 -65 14 -263 14 -314 0 -50 -14 -100 -64 -114 -114 -7
-28 -11 -297 -11 -865 0 -559 -4 -838 -11 -864 l-11 -39 -521 520 c-549 546
-582 575 -746 651 -133 61 -246 85 -411 86 -88 0 -167 -5 -200 -13 -161 -38
-287 -94 -412 -184 -72 -52 -377 -313 -676 -580 -73 -65 -137 -117 -141 -115
-5 2 -275 332 -601 733 -327 402 -614 754 -639 784 -105 122 -292 243 -456
294 -126 39 -220 51 -363 44 -257 -12 -456 -95 -652 -271 -48 -44 -102 -102
-499 -539 l-261 -288 0 2415 c0 1739 3 2430 11 2468 27 128 119 240 235 289
l59 24 860 5 c680 4 866 8 890 18 49 21 84 63 100 116 18 59 21 291 5 348 -14
50 -55 97 -105 119 -38 18 -86 19 -895 18 -661 -1 -871 -4 -928 -14z m1400
-5362 c36 -17 83 -48 105 -70 37 -37 1435 -1749 1441 -1765 2 -4 -631 -8
-1406 -8 -1353 0 -1413 1 -1471 19 -82 26 -138 60 -195 120 -69 75 -99 147
-104 251 l-4 85 537 590 c295 325 569 623 609 663 118 122 189 153 331 149 76
-2 100 -7 157 -34z m3353 -937 c107 -28 128 -46 565 -482 l425 -424 -983 0
c-621 0 -990 4 -1002 10 -16 9 -120 133 -120 144 0 4 495 438 745 653 109 94
249 132 370 99z"/>
<path d="M5195 8038 c-317 -32 -702 -154 -987 -314 -230 -129 -410 -265 -593
-449 -410 -409 -660 -907 -752 -1495 -14 -90 -18 -174 -18 -385 0 -308 12
-410 75 -661 50 -195 93 -313 190 -509 388 -790 1121 -1325 2000 -1460 147
-23 458 -31 616 -16 455 43 863 185 1224 425 178 119 269 194 415 341 377 376
630 847 734 1363 42 206 55 368 48 595 -6 226 -25 366 -77 573 -77 302 -196
567 -375 834 -263 390 -615 697 -1040 906 -278 136 -586 225 -879 253 -128 13
-452 12 -581 -1z m545 -618 c349 -44 654 -164 949 -377 122 -87 348 -310 438
-433 283 -385 416 -811 400 -1275 -11 -310 -79 -580 -212 -844 -106 -212 -215
-362 -390 -536 -334 -335 -747 -533 -1217 -584 -952 -104 -1854 485 -2151
1404 -68 212 -97 400 -97 637 0 541 203 1028 589 1416 328 329 756 538 1211
591 109 12 382 13 480 1z"/>
<path d="M5370 7125 c-46 -22 -145 -116 -613 -583 -597 -597 -598 -597 -582
-679 10 -58 34 -89 158 -210 91 -89 123 -114 157 -123 48 -13 100 -7 139 17
14 9 146 136 294 282 l267 266 0 -884 c0 -881 0 -885 21 -929 13 -26 38 -54
62 -70 40 -27 42 -27 226 -27 168 0 189 2 220 20 44 26 70 62 81 111 6 22 10
421 10 904 l0 864 263 -262 c286 -284 321 -310 399 -298 63 10 86 27 210 153
126 129 136 148 125 239 -3 30 -15 58 -38 87 -19 24 -272 279 -564 568 -588
583 -574 571 -705 577 -64 2 -83 -1 -130 -23z"/>
</g>
</svg>
